<svg width="16" height="14" viewBox="0 0 16 14" fill="none" xmlns="http://www.w3.org/2000/svg">
<path d="M2.69034 1.435C2.40788 1.14459 2.02163 0.978273 1.61655 0.972647C1.21147 0.967021 0.82075 1.12254 0.530338 1.405C0.239926 1.68745 0.0736135 2.07371 0.0679874 2.47879C0.0623614 2.88386 0.217883 3.27459 0.500338 3.565L4.01034 7L0.500338 10.435C0.359745 10.5744 0.248154 10.7403 0.172001 10.9231C0.0958476 11.1059 0.0566406 11.302 0.0566406 11.5C0.0566406 11.698 0.0958476 11.8941 0.172001 12.0769C0.248154 12.2597 0.359745 12.4256 0.500338 12.565C0.639783 12.7056 0.805684 12.8172 0.988473 12.8933C1.17126 12.9695 1.36732 13.0087 1.56534 13.0087C1.76336 13.0087 1.95941 12.9695 2.1422 12.8933C2.32499 12.8172 2.49089 12.7056 2.63034 12.565L7.13034 8.065C7.27093 7.92555 7.38252 7.75965 7.45867 7.57686C7.53483 7.39407 7.57404 7.19802 7.57404 7C7.57404 6.80198 7.53483 6.60592 7.45867 6.42313C7.38252 6.24034 7.27093 6.07444 7.13034 5.935L2.69034 1.435ZM15.4403 5.935L10.9403 1.435C10.6579 1.15254 10.2748 0.99386 9.87534 0.99386C9.47589 0.99386 9.09279 1.15254 8.81034 1.435C8.52788 1.71745 8.3692 2.10055 8.3692 2.5C8.3692 2.89945 8.52788 3.28254 8.81034 3.565L12.2603 7L8.81034 10.435C8.66975 10.5744 8.55815 10.7403 8.482 10.9231C8.40585 11.1059 8.36664 11.302 8.36664 11.5C8.36664 11.698 8.40585 11.8941 8.482 12.0769C8.55815 12.2597 8.66975 12.4256 8.81034 12.565C8.94978 12.7056 9.11568 12.8172 9.29847 12.8933C9.48126 12.9695 9.67732 13.0087 9.87534 13.0087C10.0734 13.0087 10.2694 12.9695 10.4522 12.8933C10.635 12.8172 10.8009 12.7056 10.9403 12.565L15.4403 8.065C15.5849 7.92956 15.7013 7.76681 15.7826 7.58616C15.864 7.40552 15.9087 7.21054 15.9143 7.0125C15.9199 6.81446 15.8862 6.61728 15.8151 6.43234C15.7441 6.2474 15.6371 6.07836 15.5003 5.935H15.4403Z" fill="#F59E0B"/>
</svg>
