<svg width="21" height="20" viewBox="0 0 21 20" fill="none" xmlns="http://www.w3.org/2000/svg">
<path d="M17.9097 11C17.6897 11 17.4597 10.93 17.2397 10.88C16.7945 10.7805 16.3568 10.6501 15.9297 10.49C15.4658 10.3212 14.9558 10.33 14.498 10.5146C14.0402 10.6992 13.6668 11.0466 13.4497 11.49L13.2297 11.95C12.2585 11.3992 11.3613 10.7271 10.5597 9.95C9.78254 9.14837 9.11048 8.25118 8.55968 7.28L9.01968 7.07C9.46305 6.85292 9.81046 6.47953 9.99508 6.02169C10.1797 5.56385 10.1885 5.05391 10.0197 4.59C9.86087 4.15903 9.73059 3.71808 9.62968 3.27C9.57968 3.05 9.53968 2.82 9.50968 2.6C9.38825 1.89562 9.01931 1.25774 8.46931 0.801239C7.9193 0.344737 7.22438 0.0996088 6.50968 0.11H3.49968C3.07693 0.109446 2.65883 0.198248 2.2728 0.370584C1.88677 0.54292 1.54152 0.794898 1.25968 1.11C0.972004 1.43365 0.757799 1.81575 0.631787 2.23004C0.505775 2.64432 0.470943 3.08098 0.529684 3.51C1.07327 7.67214 2.97489 11.5387 5.93968 14.51C8.91103 17.4748 12.7775 19.3764 16.9397 19.92C17.0695 19.9299 17.1999 19.9299 17.3297 19.92C18.0671 19.9211 18.7791 19.6505 19.3297 19.16C19.6448 18.8782 19.8968 18.5329 20.0691 18.1469C20.2414 17.7609 20.3302 17.3428 20.3297 16.92V13.92C20.3243 13.229 20.0805 12.5611 19.6396 12.0291C19.1987 11.4971 18.5876 11.1336 17.9097 11ZM18.3997 17C18.3994 17.1395 18.3698 17.2775 18.313 17.4049C18.2562 17.5324 18.1733 17.6465 18.0697 17.74C17.9601 17.8399 17.8297 17.9141 17.6878 17.9573C17.546 18.0006 17.3963 18.0117 17.2497 17.99C13.518 17.5026 10.0499 15.802 7.37968 13.15C4.70716 10.4775 2.99171 6.99737 2.49968 3.25C2.47796 3.10333 2.48912 2.95367 2.53236 2.81185C2.5756 2.67003 2.64983 2.5396 2.74968 2.43C2.8443 2.32515 2.96006 2.24154 3.08933 2.18466C3.2186 2.12778 3.35846 2.09892 3.49968 2.1H6.49968C6.73085 2.09435 6.95682 2.16898 7.13915 2.3112C7.32147 2.45341 7.44888 2.65442 7.49968 2.88C7.49968 3.15 7.58968 3.43 7.64968 3.7C7.76526 4.22386 7.919 4.73857 8.10968 5.24L6.70968 5.9C6.46905 6.01046 6.28204 6.21185 6.18968 6.46C6.08967 6.70346 6.08967 6.97654 6.18968 7.22C7.62888 10.3028 10.1069 12.7808 13.1897 14.22C13.4331 14.32 13.7062 14.32 13.9497 14.22C14.1978 14.1276 14.3992 13.9406 14.5097 13.7L15.1397 12.3C15.6556 12.4881 16.1834 12.6418 16.7197 12.76C16.9797 12.82 17.2597 12.87 17.5297 12.91C17.7553 12.9608 17.9563 13.0882 18.0985 13.2705C18.2407 13.4529 18.3153 13.6788 18.3097 13.91L18.3997 17ZM12.4997 0C12.2697 0 12.0297 0 11.7997 0C11.5345 0.0225434 11.2891 0.14952 11.1175 0.352997C10.9459 0.556474 10.8621 0.819784 10.8847 1.085C10.9072 1.35022 11.0342 1.59562 11.2377 1.76721C11.4412 1.93881 11.7045 2.02254 11.9697 2H12.4997C14.091 2 15.6171 2.63214 16.7423 3.75736C17.8675 4.88258 18.4997 6.4087 18.4997 8C18.4997 8.18 18.4997 8.35 18.4997 8.53C18.4775 8.79381 18.5609 9.05565 18.7314 9.2581C18.902 9.46055 19.1459 9.5871 19.4097 9.61H19.4897C19.74 9.61102 19.9816 9.5181 20.1668 9.34961C20.3519 9.18113 20.4672 8.94932 20.4897 8.7C20.4897 8.47 20.4897 8.23 20.4897 8C20.4897 5.88 19.6482 3.84668 18.1501 2.34668C16.6519 0.846674 14.6197 0.00265 12.4997 0ZM14.4997 8C14.4997 8.26522 14.605 8.51957 14.7926 8.70711C14.9801 8.89464 15.2345 9 15.4997 9C15.7649 9 16.0193 8.89464 16.2068 8.70711C16.3943 8.51957 16.4997 8.26522 16.4997 8C16.4997 6.93913 16.0783 5.92172 15.3281 5.17157C14.578 4.42143 13.5605 4 12.4997 4C12.2345 4 11.9801 4.10536 11.7926 4.29289C11.605 4.48043 11.4997 4.73478 11.4997 5C11.4997 5.26522 11.605 5.51957 11.7926 5.70711C11.9801 5.89464 12.2345 6 12.4997 6C13.0301 6 13.5388 6.21071 13.9139 6.58579C14.289 6.96086 14.4997 7.46957 14.4997 8Z" fill="#EBF5FF"/>
</svg>
