<svg width="21" height="21" viewBox="0 0 21 21" fill="none" xmlns="http://www.w3.org/2000/svg">
<path d="M3.5 16.9999H7.74C7.87161 17.0007 8.00207 16.9755 8.12391 16.9257C8.24574 16.8759 8.35656 16.8026 8.45 16.7099L15.37 9.77994L18.21 6.99994C18.3037 6.90698 18.3781 6.79637 18.4289 6.67452C18.4797 6.55266 18.5058 6.42195 18.5058 6.28994C18.5058 6.15793 18.4797 6.02722 18.4289 5.90536C18.3781 5.7835 18.3037 5.6729 18.21 5.57994L13.97 1.28994C13.877 1.19621 13.7664 1.12182 13.6446 1.07105C13.5227 1.02028 13.392 0.994141 13.26 0.994141C13.128 0.994141 12.9973 1.02028 12.8754 1.07105C12.7536 1.12182 12.643 1.19621 12.55 1.28994L9.73 4.11994L2.79 11.0499C2.69732 11.1434 2.62399 11.2542 2.57423 11.376C2.52446 11.4979 2.49924 11.6283 2.5 11.7599V15.9999C2.5 16.2652 2.60536 16.5195 2.79289 16.707C2.98043 16.8946 3.23478 16.9999 3.5 16.9999ZM13.26 3.40994L16.09 6.23994L14.67 7.65994L11.84 4.82994L13.26 3.40994ZM4.5 12.1699L10.43 6.23994L13.26 9.06994L7.33 14.9999H4.5V12.1699ZM19.5 18.9999H1.5C1.23478 18.9999 0.98043 19.1053 0.792893 19.2928C0.605357 19.4804 0.5 19.7347 0.5 19.9999C0.5 20.2652 0.605357 20.5195 0.792893 20.707C0.98043 20.8946 1.23478 20.9999 1.5 20.9999H19.5C19.7652 20.9999 20.0196 20.8946 20.2071 20.707C20.3946 20.5195 20.5 20.2652 20.5 19.9999C20.5 19.7347 20.3946 19.4804 20.2071 19.2928C20.0196 19.1053 19.7652 18.9999 19.5 18.9999Z" fill="#22C55E"/>
</svg>
