<svg width="25" height="25" viewBox="0 0 25 25" fill="none" xmlns="http://www.w3.org/2000/svg">
<path fill-rule="evenodd" clip-rule="evenodd" d="M14.1347 21.5393V13.578H16.8581L17.2666 10.4744H14.1347V8.49327C14.1347 7.595 14.388 6.98284 15.7027 6.98284L17.3769 6.98216V4.20623C17.0874 4.16932 16.0935 4.08472 14.9368 4.08472C12.5215 4.08472 10.8679 5.5308 10.8679 8.1859V10.4744H8.13623V13.578H10.8679V21.5393H14.1347Z" fill="#5DABFF"/>
<mask id="mask0_404_901" style="mask-type:luminance" maskUnits="userSpaceOnUse" x="8" y="4" width="10" height="18">
<path fill-rule="evenodd" clip-rule="evenodd" d="M14.1347 21.5393V13.578H16.8581L17.2666 10.4744H14.1347V8.49327C14.1347 7.595 14.388 6.98284 15.7027 6.98284L17.3769 6.98216V4.20623C17.0874 4.16932 16.0935 4.08472 14.9368 4.08472C12.5215 4.08472 10.8679 5.5308 10.8679 8.1859V10.4744H8.13623V13.578H10.8679V21.5393H14.1347Z" fill="white"/>
</mask>
<g mask="url(#mask0_404_901)">
</g>
</svg>
