<svg width="25" height="25" viewBox="0 0 25 25" fill="none" xmlns="http://www.w3.org/2000/svg">
<path d="M12.5 3.81201C7.5275 3.81201 3.5 7.94412 3.5 13.0404C3.5 17.1185 6.0785 20.5768 9.65375 21.7961C10.1037 21.883 10.2687 21.5973 10.2687 21.3524C10.2687 21.1332 10.2613 20.5525 10.2575 19.7833C7.754 20.3397 7.226 18.5452 7.226 18.5452C6.8165 17.4801 6.22475 17.1952 6.22475 17.1952C5.4095 16.6231 6.28775 16.6349 6.28775 16.6349C7.1915 16.699 7.66625 17.5857 7.66625 17.5857C8.46875 18.9967 9.773 18.589 10.2875 18.3534C10.3685 17.7563 10.6003 17.3502 10.8575 17.1193C8.85875 16.8884 6.758 16.0949 6.758 12.5591C6.758 11.5519 7.10675 10.7286 7.68425 10.083C7.583 9.84975 7.27925 8.91141 7.763 7.64048C7.763 7.64048 8.51675 7.39318 10.238 8.58664C10.958 8.3816 11.723 8.27986 12.488 8.27516C13.253 8.27986 14.018 8.3816 14.738 8.58664C16.448 7.39318 17.2017 7.64048 17.2017 7.64048C17.6855 8.91141 17.3818 9.84975 17.2917 10.083C17.8655 10.7286 18.2142 11.5519 18.2142 12.5591C18.2142 16.1043 16.1105 16.8845 14.108 17.1115C14.423 17.3885 14.7155 17.9543 14.7155 18.8191C14.7155 20.054 14.7043 21.0464 14.7043 21.3461C14.7043 21.5879 14.8617 21.8767 15.323 21.7844C18.9237 20.5729 21.5 17.1122 21.5 13.0404C21.5 7.94412 17.4703 3.81201 12.5 3.81201Z" fill="#5DABFF"/>
</svg>
