<svg width="25" height="25" viewBox="0 0 25 25" fill="none" xmlns="http://www.w3.org/2000/svg">
<path fill-rule="evenodd" clip-rule="evenodd" d="M8.10045 2.9939H16.899C19.8871 2.9939 22.3181 5.42489 22.318 8.41282V17.2113C22.318 20.1993 19.8871 22.6303 16.899 22.6303H8.10045C5.11252 22.6303 2.68164 20.1994 2.68164 17.2113V8.41282C2.68164 5.42489 5.11252 2.9939 8.10045 2.9939ZM16.8991 20.888C18.9265 20.888 20.5759 19.2387 20.5759 17.2113H20.5758V8.41282C20.5758 6.38556 18.9263 4.73613 16.899 4.73613H8.10045C6.07319 4.73613 4.42387 6.38556 4.42387 8.41282V17.2113C4.42387 19.2387 6.07319 20.8881 8.10045 20.888H16.8991ZM7.35696 12.8122C7.35696 9.97632 9.66401 7.66922 12.4998 7.66922C15.3356 7.66922 17.6427 9.97632 17.6427 12.8122C17.6427 15.648 15.3356 17.9549 12.4998 17.9549C9.66401 17.9549 7.35696 15.648 7.35696 12.8122ZM9.1278 12.8121C9.1278 14.6714 10.6406 16.1839 12.4998 16.1839C14.3591 16.1839 15.8718 14.6714 15.8718 12.8121C15.8718 10.9527 14.3592 9.43998 12.4998 9.43998C10.6404 9.43998 9.1278 10.9527 9.1278 12.8121Z" fill="#5DABFF"/>
<mask id="mask0_404_907" style="mask-type:luminance" maskUnits="userSpaceOnUse" x="2" y="2" width="21" height="21">
<path fill-rule="evenodd" clip-rule="evenodd" d="M8.10045 2.9939H16.899C19.8871 2.9939 22.3181 5.42489 22.318 8.41282V17.2113C22.318 20.1993 19.8871 22.6303 16.899 22.6303H8.10045C5.11252 22.6303 2.68164 20.1994 2.68164 17.2113V8.41282C2.68164 5.42489 5.11252 2.9939 8.10045 2.9939ZM16.8991 20.888C18.9265 20.888 20.5759 19.2387 20.5759 17.2113H20.5758V8.41282C20.5758 6.38556 18.9263 4.73613 16.899 4.73613H8.10045C6.07319 4.73613 4.42387 6.38556 4.42387 8.41282V17.2113C4.42387 19.2387 6.07319 20.8881 8.10045 20.888H16.8991ZM7.35696 12.8122C7.35696 9.97632 9.66401 7.66922 12.4998 7.66922C15.3356 7.66922 17.6427 9.97632 17.6427 12.8122C17.6427 15.648 15.3356 17.9549 12.4998 17.9549C9.66401 17.9549 7.35696 15.648 7.35696 12.8122ZM9.1278 12.8121C9.1278 14.6714 10.6406 16.1839 12.4998 16.1839C14.3591 16.1839 15.8718 14.6714 15.8718 12.8121C15.8718 10.9527 14.3592 9.43998 12.4998 9.43998C10.6404 9.43998 9.1278 10.9527 9.1278 12.8121Z" fill="white"/>
</mask>
<g mask="url(#mask0_404_907)">
</g>
</svg>
