<svg width="25" height="25" viewBox="0 0 25 25" fill="none" xmlns="http://www.w3.org/2000/svg">
<path d="M19.7 3.81201H5.3C4.31 3.81201 3.5 4.62201 3.5 5.61201V20.012C3.5 21.002 4.31 21.812 5.3 21.812H19.7C20.69 21.812 21.5 21.002 21.5 20.012V5.61201C21.5 4.62201 20.69 3.81201 19.7 3.81201ZM8.9 19.112H6.2V11.012H8.9V19.112ZM7.55 9.48201C6.65 9.48201 5.93 8.76201 5.93 7.86201C5.93 6.96201 6.65 6.24201 7.55 6.24201C8.45 6.24201 9.17 6.96201 9.17 7.86201C9.17 8.76201 8.45 9.48201 7.55 9.48201ZM18.8 19.112H16.1V14.342C16.1 13.622 15.47 12.992 14.75 12.992C14.03 12.992 13.4 13.622 13.4 14.342V19.112H10.7V11.012H13.4V12.092C13.85 11.372 14.84 10.832 15.65 10.832C17.36 10.832 18.8 12.272 18.8 13.982V19.112Z" fill="#5DABFF"/>
</svg>
