<svg width="18" height="22" viewBox="0 0 18 22" fill="none" xmlns="http://www.w3.org/2000/svg">
<path d="M15.0009 3.47991C13.4096 1.88861 11.2513 0.994629 9.00091 0.994629C6.75047 0.994629 4.59221 1.88861 3.00091 3.47991C1.40961 5.07121 0.515625 7.22947 0.515625 9.47991C0.515625 11.7303 1.40961 13.8886 3.00091 15.4799L8.27091 20.7599C8.36387 20.8536 8.47447 20.928 8.59633 20.9788C8.71819 21.0296 8.84889 21.0557 8.98091 21.0557C9.11292 21.0557 9.24362 21.0296 9.36548 20.9788C9.48734 20.928 9.59794 20.8536 9.69091 20.7599L15.0009 15.4299C16.5856 13.8452 17.4758 11.696 17.4758 9.45491C17.4758 7.21386 16.5856 5.06459 15.0009 3.47991ZM13.5709 13.9999L9.00091 18.5899L4.43091 13.9999C3.52805 13.0962 2.91338 11.9452 2.6646 10.6922C2.41582 9.43925 2.54409 8.14066 3.03321 6.96059C3.52233 5.78052 4.35032 4.77196 5.41254 4.06239C6.47475 3.35281 7.72349 2.97409 9.00091 2.97409C10.2783 2.97409 11.5271 3.35281 12.5893 4.06239C13.6515 4.77196 14.4795 5.78052 14.9686 6.96059C15.4577 8.14066 15.586 9.43925 15.3372 10.6922C15.0884 11.9452 14.4738 13.0962 13.5709 13.9999ZM6.00091 6.40991C5.19362 7.21968 4.7403 8.31648 4.7403 9.45991C4.7403 10.6033 5.19362 11.7001 6.00091 12.5099C6.60067 13.1107 7.36449 13.521 8.19656 13.6893C9.02862 13.8576 9.89186 13.7765 10.678 13.4561C11.4641 13.1356 12.1381 12.5902 12.6154 11.8882C13.0927 11.1861 13.352 10.3588 13.3609 9.50991C13.3654 8.94311 13.2562 8.38117 13.0398 7.8573C12.8234 7.33343 12.5041 6.85827 12.1009 6.45991C11.7046 6.05449 11.232 5.73145 10.7103 5.50938C10.1887 5.2873 9.62825 5.17059 9.06131 5.16594C8.49437 5.16129 7.93211 5.26881 7.40688 5.4823C6.88165 5.69579 6.40383 6.01104 6.00091 6.40991ZM10.6909 11.0899C10.3119 11.4747 9.81112 11.7158 9.27403 11.7722C8.73695 11.8285 8.19697 11.6966 7.74641 11.3988C7.29586 11.1011 6.9627 10.6562 6.80391 10.14C6.64512 9.62384 6.67056 9.06855 6.87586 8.56907C7.08117 8.06958 7.45361 7.65693 7.92949 7.40165C8.40538 7.14637 8.95516 7.06432 9.48484 7.16953C10.0145 7.27474 10.4912 7.56067 10.8334 7.97844C11.1756 8.39621 11.3621 8.91988 11.3609 9.45991C11.3464 10.0772 11.0874 10.6634 10.6409 11.0899H10.6909Z" fill="#EBF5FF"/>
</svg>
