<svg width="16" height="21" viewBox="0 0 16 21" fill="none" xmlns="http://www.w3.org/2000/svg">
<path d="M7.99951 10.1636C8.54951 10.1636 9.02051 9.96757 9.41251 9.57557C9.80385 9.18424 9.99951 8.71357 9.99951 8.16357C9.99951 7.61357 9.80385 7.14257 9.41251 6.75057C9.02051 6.35924 8.54951 6.16357 7.99951 6.16357C7.44951 6.16357 6.97885 6.35924 6.58751 6.75057C6.19551 7.14257 5.99951 7.61357 5.99951 8.16357C5.99951 8.71357 6.19551 9.18424 6.58751 9.57557C6.97885 9.96757 7.44951 10.1636 7.99951 10.1636ZM7.99951 20.1636C5.31618 17.8802 3.31218 15.7592 1.98751 13.8006C0.662178 11.8426 -0.000488281 10.0302 -0.000488281 8.36357C-0.000488281 5.86357 0.803845 3.87191 2.41251 2.38857C4.02051 0.905241 5.88284 0.163574 7.99951 0.163574C10.1162 0.163574 11.9785 0.905241 13.5865 2.38857C15.1952 3.87191 15.9995 5.86357 15.9995 8.36357C15.9995 10.0302 15.3372 11.8426 14.0125 13.8006C12.6872 15.7592 10.6828 17.8802 7.99951 20.1636Z" fill="#6ADF95"/>
</svg>
