<svg width="19" height="20" viewBox="0 0 19 20" fill="none" xmlns="http://www.w3.org/2000/svg">
<path d="M17.46 6.82003L11.25 0.780025C10.724 0.279878 10.0259 0.000976562 9.3 0.000976562C8.57415 0.000976562 7.87604 0.279878 7.35 0.780025L1.14 6.78003C0.864081 7.02089 0.642165 7.31733 0.48879 7.64993C0.335414 7.98253 0.254041 8.34379 0.25 8.71003V17.29C0.26054 18.0176 0.559044 18.7114 1.08012 19.2194C1.60119 19.7273 2.30235 20.008 3.03 20H15.47C16.1976 20.008 16.8988 19.7273 17.4199 19.2194C17.941 18.7114 18.2395 18.0176 18.25 17.29V8.71003C18.2492 8.3585 18.179 8.01058 18.0435 7.68625C17.9079 7.36191 17.7096 7.06754 17.46 6.82003ZM8.69 2.22003C8.84298 2.08019 9.04274 2.00264 9.25 2.00264C9.45726 2.00264 9.65702 2.08019 9.81 2.22003L15.25 7.50003L9.78 12.78C9.62702 12.9199 9.42726 12.9974 9.22 12.9974C9.01274 12.9974 8.81298 12.9199 8.66 12.78L3.25 7.50003L8.69 2.22003ZM16.25 17.29C16.2371 17.4863 16.1487 17.67 16.0032 17.8024C15.8578 17.9348 15.6666 18.0056 15.47 18H3.03C2.83338 18.0056 2.64225 17.9348 2.49678 17.8024C2.35132 17.67 2.26286 17.4863 2.25 17.29V9.35003L6.3 13.25L4.64 14.85C4.45375 15.0374 4.34921 15.2908 4.34921 15.555C4.34921 15.8192 4.45375 16.0727 4.64 16.26C4.73295 16.3575 4.84463 16.4352 4.96836 16.4885C5.09208 16.5418 5.2253 16.5695 5.36 16.57C5.61747 16.569 5.86462 16.4687 6.05 16.29L7.82 14.59C8.25961 14.8587 8.76481 15.0008 9.28 15.0008C9.79519 15.0008 10.3004 14.8587 10.74 14.59L12.51 16.29C12.6954 16.4687 12.9425 16.569 13.2 16.57C13.3347 16.5695 13.4679 16.5418 13.5916 16.4885C13.7154 16.4352 13.8271 16.3575 13.92 16.26C14.1063 16.0727 14.2108 15.8192 14.2108 15.555C14.2108 15.2908 14.1063 15.0374 13.92 14.85L12.25 13.25L16.25 9.35003V17.29Z" fill="#EBF5FF"/>
</svg>
