<svg width="21" height="20" viewBox="0 0 21 20" fill="none" xmlns="http://www.w3.org/2000/svg">
<path d="M18.4406 10.9999C18.2206 10.9999 17.9906 10.9299 17.7706 10.8799C17.3251 10.7817 16.8873 10.6514 16.4606 10.4899C15.9967 10.3211 15.4867 10.3299 15.0289 10.5145C14.5711 10.6991 14.1977 11.0465 13.9806 11.4899L13.7606 11.9399C12.7866 11.398 11.8916 10.7251 11.1006 9.93987C10.3154 9.14888 9.64241 8.25387 9.10059 7.27987L9.52059 6.99987C9.96395 6.78278 10.3114 6.4094 10.496 5.95156C10.6806 5.49372 10.6894 4.98378 10.5206 4.51987C10.3618 4.09229 10.2315 3.65467 10.1306 3.20987C10.0806 2.98987 10.0406 2.75987 10.0106 2.52987C9.88915 1.82549 9.52021 1.18761 8.97021 0.731107C8.42021 0.274605 7.72529 0.0294769 7.01059 0.0398681H4.01059C3.57962 0.0358215 3.15284 0.124682 2.7593 0.300399C2.36576 0.476116 2.0147 0.734564 1.73002 1.05815C1.44534 1.38174 1.23372 1.76286 1.10958 2.17558C0.985431 2.5883 0.951668 3.02293 1.01059 3.44987C1.54333 7.63925 3.45662 11.5317 6.44824 14.5125C9.43987 17.4933 13.3393 19.3924 17.5306 19.9099H17.9106C18.648 19.9109 19.36 19.6404 19.9106 19.1499C20.227 18.8669 20.4797 18.52 20.6521 18.1322C20.8244 17.7443 20.9126 17.3243 20.9106 16.8999V13.8999C20.8983 13.2053 20.6454 12.5364 20.1949 12.0075C19.7445 11.4786 19.1244 11.1225 18.4406 10.9999ZM18.9406 16.9999C18.9404 17.1419 18.91 17.2822 18.8514 17.4115C18.7927 17.5408 18.7073 17.6562 18.6006 17.7499C18.4892 17.8469 18.3586 17.9193 18.2173 17.9624C18.076 18.0054 17.9272 18.0182 17.7806 17.9999C14.0355 17.5197 10.5568 15.8064 7.89331 13.1302C5.22978 10.454 3.533 6.96721 3.07059 3.21987C3.05467 3.07339 3.06862 2.9252 3.11159 2.78426C3.15456 2.64332 3.22566 2.51256 3.32059 2.39987C3.4143 2.2932 3.52965 2.20771 3.65897 2.14909C3.78829 2.09046 3.9286 2.06005 4.07059 2.05987H7.07059C7.30314 2.05469 7.53021 2.13075 7.71273 2.27494C7.89525 2.41913 8.0218 2.62244 8.07059 2.84987C8.11059 3.1232 8.16059 3.3932 8.22059 3.65987C8.33611 4.18701 8.48985 4.70505 8.68059 5.20987L7.28059 5.85987C7.16089 5.91479 7.05321 5.99281 6.96375 6.08946C6.87428 6.18611 6.80479 6.29948 6.75926 6.42306C6.71373 6.54664 6.69306 6.678 6.69844 6.80959C6.70381 6.94118 6.73513 7.07041 6.79059 7.18987C8.22979 10.2726 10.7078 12.7507 13.7906 14.1899C14.0341 14.2899 14.3071 14.2899 14.5506 14.1899C14.6753 14.1453 14.7899 14.0763 14.8878 13.9871C14.9856 13.8978 15.0648 13.79 15.1206 13.6699L15.7406 12.2699C16.2576 12.4547 16.7852 12.6084 17.3206 12.7299C17.5873 12.7899 17.8573 12.8399 18.1306 12.8799C18.358 12.9287 18.5613 13.0552 18.7055 13.2377C18.8497 13.4202 18.9258 13.6473 18.9206 13.8799L18.9406 16.9999Z" fill="#3496FF"/>
</svg>
