<svg width="21" height="20" viewBox="0 0 21 20" fill="none" xmlns="http://www.w3.org/2000/svg">
<path d="M19.75 0H1.75C1.48478 0 1.23043 0.105357 1.04289 0.292893C0.855357 0.48043 0.75 0.734784 0.75 1V19C0.75 19.2652 0.855357 19.5196 1.04289 19.7071C1.23043 19.8946 1.48478 20 1.75 20H19.75C20.0152 20 20.2696 19.8946 20.4571 19.7071C20.6446 19.5196 20.75 19.2652 20.75 19V1C20.75 0.734784 20.6446 0.48043 20.4571 0.292893C20.2696 0.105357 20.0152 0 19.75 0ZM6.75 18H2.75V14H6.75V18ZM6.75 12H2.75V8H6.75V12ZM6.75 6H2.75V2H6.75V6ZM12.75 18H8.75V14H12.75V18ZM12.75 12H8.75V8H12.75V12ZM12.75 6H8.75V2H12.75V6ZM18.75 18H14.75V14H18.75V18ZM18.75 12H14.75V8H18.75V12ZM18.75 6H14.75V2H18.75V6Z" fill="#EBF5FF"/>
</svg>
