<svg width="25" height="25" viewBox="0 0 25 25" fill="none" xmlns="http://www.w3.org/2000/svg">
<path fill-rule="evenodd" clip-rule="evenodd" d="M22.3184 6.95787C21.6358 7.26032 20.9034 7.46545 20.1339 7.55702C20.9196 7.08651 21.5211 6.3402 21.8061 5.45366C21.0691 5.88939 20.2556 6.20578 19.3887 6.37729C18.6946 5.63678 17.7072 5.17554 16.612 5.17554C14.511 5.17554 12.8075 6.87908 12.8075 8.97896C12.8075 9.27678 12.8411 9.56766 12.906 9.84581C9.74459 9.68702 6.94128 8.17239 5.06507 5.87084C4.7371 6.43175 4.55053 7.08533 4.55053 7.78299C4.55053 9.10296 5.22268 10.2676 6.24249 10.949C5.61901 10.9282 5.03262 10.7567 4.51925 10.4716V10.5191C4.51925 12.3617 5.8311 13.8995 7.57056 14.2495C7.25186 14.3353 6.9158 14.3828 6.56813 14.3828C6.32246 14.3828 6.08489 14.3584 5.85195 14.3121C6.33634 15.8244 7.74092 16.9242 9.40507 16.9543C8.10365 17.9741 6.46268 18.5802 4.68034 18.5802C4.37325 18.5802 4.07077 18.5617 3.77295 18.5281C5.4568 19.6093 7.45586 20.2397 9.6044 20.2397C16.6028 20.2397 20.4283 14.4431 20.4283 9.41587L20.4155 8.92336C21.163 8.39023 21.8096 7.72042 22.3184 6.95787Z" fill="#5DABFF"/>
<mask id="mask0_404_904" style="mask-type:luminance" maskUnits="userSpaceOnUse" x="3" y="5" width="20" height="16">
<path fill-rule="evenodd" clip-rule="evenodd" d="M22.3184 6.95787C21.6358 7.26032 20.9034 7.46545 20.1339 7.55702C20.9196 7.08651 21.5211 6.3402 21.8061 5.45366C21.0691 5.88939 20.2556 6.20578 19.3887 6.37729C18.6946 5.63678 17.7072 5.17554 16.612 5.17554C14.511 5.17554 12.8075 6.87908 12.8075 8.97896C12.8075 9.27678 12.8411 9.56766 12.906 9.84581C9.74459 9.68702 6.94128 8.17239 5.06507 5.87084C4.7371 6.43175 4.55053 7.08533 4.55053 7.78299C4.55053 9.10296 5.22268 10.2676 6.24249 10.949C5.61901 10.9282 5.03262 10.7567 4.51925 10.4716V10.5191C4.51925 12.3617 5.8311 13.8995 7.57056 14.2495C7.25186 14.3353 6.9158 14.3828 6.56813 14.3828C6.32246 14.3828 6.08489 14.3584 5.85195 14.3121C6.33634 15.8244 7.74092 16.9242 9.40507 16.9543C8.10365 17.9741 6.46268 18.5802 4.68034 18.5802C4.37325 18.5802 4.07077 18.5617 3.77295 18.5281C5.4568 19.6093 7.45586 20.2397 9.6044 20.2397C16.6028 20.2397 20.4283 14.4431 20.4283 9.41587L20.4155 8.92336C21.163 8.39023 21.8096 7.72042 22.3184 6.95787Z" fill="white"/>
</mask>
<g mask="url(#mask0_404_904)">
</g>
</svg>
